<svg width="50" height="48" viewBox="0 0 50 48" fill="none" xmlns="http://www.w3.org/2000/svg">
<path d="M50 0.475248L48.847 9.24093C45.9818 9.02971 43.8155 9.59296 42.348 10.9307C40.8805 12.2684 39.9371 14.099 39.5178 16.4224C39.0985 18.7459 38.9937 21.3157 39.2034 24.132H50V48H29.4549V20.9637C29.4549 13.571 31.2369 8.0088 34.8008 4.27723C38.4347 0.475248 43.501 -0.792079 50 0.475248ZM20.5451 0.475248L19.392 9.24093C16.5269 9.02971 14.3606 9.59296 12.8931 10.9307C11.4256 12.2684 10.4822 14.099 10.0629 16.4224C9.64361 18.7459 9.53878 21.3157 9.74843 24.132H20.5451V48H0V20.9637C0 13.571 1.78197 8.0088 5.34591 4.27723C8.97973 0.475248 14.0461 -0.792079 20.5451 0.475248Z" fill="#363636" fill-opacity="0.2"/>
</svg>
